<svg width="22" height="22" viewBox="0 0 22 22" fill="none" xmlns="http://www.w3.org/2000/svg">
<path d="M11.2728 1.90491C14.0945 1.90491 14.4291 1.91548 15.5441 1.96656C18.4081 2.0969 19.7458 3.4558 19.8762 6.29864C19.9272 7.4127 19.9369 7.74736 19.9369 10.5691C19.9369 13.3916 19.9263 13.7254 19.8762 14.8395C19.7449 17.6797 18.4107 19.0412 15.5441 19.1716C14.4291 19.2226 14.0962 19.2332 11.2728 19.2332C8.45107 19.2332 8.11641 19.2226 7.00235 19.1716C4.13132 19.0403 2.80061 17.6753 2.67027 14.8386C2.61919 13.7245 2.60862 13.3908 2.60862 10.5682C2.60862 7.74648 2.62007 7.4127 2.67027 6.29776C2.80149 3.4558 4.13573 2.09602 7.00235 1.96568C8.11729 1.91548 8.45107 1.90491 11.2728 1.90491ZM11.2728 0C8.40263 0 8.04331 0.0123295 6.91604 0.0634091C3.07803 0.239545 0.945016 2.36903 0.76888 6.21057C0.716919 7.33872 0.70459 7.69804 0.70459 10.5682C0.70459 13.4383 0.716919 13.7985 0.767999 14.9258C0.944135 18.7638 3.07362 20.8968 6.91516 21.073C8.04331 21.124 8.40263 21.1364 11.2728 21.1364C14.1429 21.1364 14.5031 21.124 15.6304 21.073C19.4649 20.8968 21.6032 18.7673 21.7767 14.9258C21.8286 13.7985 21.841 13.4383 21.841 10.5682C21.841 7.69804 21.8286 7.33872 21.7775 6.21145C21.6049 2.37696 19.4728 0.240426 15.6313 0.0642898C14.5031 0.0123295 14.1429 0 11.2728 0ZM11.2728 5.14142C8.27581 5.14142 5.84601 7.57122 5.84601 10.5682C5.84601 13.5651 8.27581 15.9958 11.2728 15.9958C14.2697 15.9958 16.6995 13.566 16.6995 10.5682C16.6995 7.57122 14.2697 5.14142 11.2728 5.14142ZM11.2728 14.0909C9.32735 14.0909 7.75004 12.5145 7.75004 10.5682C7.75004 8.62276 9.32735 7.04545 11.2728 7.04545C13.2182 7.04545 14.7955 8.62276 14.7955 10.5682C14.7955 12.5145 13.2182 14.0909 11.2728 14.0909ZM16.9144 3.65923C16.2134 3.65923 15.6454 4.22727 15.6454 4.92741C15.6454 5.62756 16.2134 6.1956 16.9144 6.1956C17.6146 6.1956 18.1817 5.62756 18.1817 4.92741C18.1817 4.22727 17.6146 3.65923 16.9144 3.65923Z" fill="black"/>
</svg>
