<svg width="23" height="23" viewBox="0 0 23 23" fill="none" xmlns="http://www.w3.org/2000/svg">
<path d="M21.5521 17.8623L17.9287 14.2388L15.1416 13.0874C16.0696 11.7677 16.5668 10.1933 16.565 8.57997C16.565 4.24318 13.0368 0.714966 8.70001 0.714966C4.36322 0.714966 0.835007 4.24318 0.835007 8.57997C0.835007 12.9168 4.36322 16.445 8.70001 16.445C10.3274 16.4468 11.9148 15.9411 13.2411 14.9981L14.3896 17.7777L18.0129 21.4013C18.2453 21.6337 18.5211 21.818 18.8247 21.9438C19.1284 22.0696 19.4538 22.1343 19.7824 22.1343C20.1111 22.1343 20.4365 22.0696 20.7401 21.9439C21.0437 21.8181 21.3196 21.6338 21.552 21.4014C21.7844 21.169 21.9688 20.8932 22.0945 20.5895C22.2203 20.2859 22.285 19.9605 22.2851 19.6319C22.2851 19.3032 22.2203 18.9778 22.0946 18.6742C21.9688 18.3705 21.7845 18.0947 21.5521 17.8623ZM2.26501 8.57997C2.26501 5.03178 5.15182 2.14497 8.70001 2.14497C12.2482 2.14497 15.135 5.03178 15.135 8.57997C15.135 12.1282 12.2482 15.015 8.70001 15.015C5.15182 15.015 2.26501 12.1282 2.26501 8.57997ZM20.5409 20.3902C20.3396 20.591 20.0669 20.7038 19.7825 20.7038C19.4982 20.7038 19.2254 20.591 19.0241 20.3902L15.6023 16.9683L14.5345 14.3838L17.1191 15.4516L20.541 18.8734C20.7418 19.0747 20.8546 19.3475 20.8546 19.6318C20.8545 19.9161 20.7417 20.1889 20.5409 20.3902Z" fill="black"/>
</svg>
