<svg width="15" height="17" viewBox="0 0 15 17" fill="none" xmlns="http://www.w3.org/2000/svg">
<path d="M13.9888 13.6996C13.6236 12.7656 13.0935 11.9171 12.4282 11.2015C11.765 10.4839 10.9793 9.91174 10.1145 9.51664C10.1068 9.51246 10.099 9.51037 10.0913 9.50619C11.2975 8.56548 12.0817 7.03318 12.0817 5.30438C12.0817 2.44046 9.93254 0.120056 7.28 0.120056C4.62746 0.120056 2.47833 2.44046 2.47833 5.30438C2.47833 7.03318 3.26247 8.56548 4.4687 9.50828C4.46096 9.51246 4.45321 9.51455 4.44547 9.51873C3.57807 9.91382 2.79973 10.4803 2.13176 11.2036C1.46709 11.9198 0.937157 12.7681 0.571215 13.7017C0.211713 14.6158 0.0178261 15.5958 4.84155e-05 16.5886C-0.000468355 16.611 0.00315619 16.6331 0.0107086 16.6539C0.0182609 16.6747 0.0295883 16.6936 0.0440232 16.7096C0.0584581 16.7256 0.0757084 16.7383 0.0947578 16.7469C0.113807 16.7556 0.13427 16.7601 0.154941 16.7601H1.31664C1.40183 16.7601 1.46959 16.6869 1.47153 16.597C1.51025 14.9832 2.11046 13.4718 3.17147 12.3262C4.26928 11.1409 5.7272 10.4887 7.28 10.4887C8.8328 10.4887 10.2907 11.1409 11.3885 12.3262C12.4495 13.4718 13.0497 14.9832 13.0885 16.597C13.0904 16.689 13.1582 16.7601 13.2434 16.7601H14.4051C14.4257 16.7601 14.4462 16.7556 14.4652 16.7469C14.4843 16.7383 14.5015 16.7256 14.516 16.7096C14.5304 16.6936 14.5417 16.6747 14.5493 16.6539C14.5568 16.6331 14.5605 16.611 14.56 16.5886C14.5406 15.5894 14.3489 14.6173 13.9888 13.6996ZM7.28 8.89996C6.3913 8.89996 5.55488 8.52576 4.92563 7.84637C4.29638 7.16697 3.94981 6.2639 3.94981 5.30438C3.94981 4.34486 4.29638 3.44178 4.92563 2.76239C5.55488 2.08299 6.3913 1.7088 7.28 1.7088C8.1687 1.7088 9.00512 2.08299 9.63437 2.76239C10.2636 3.44178 10.6102 4.34486 10.6102 5.30438C10.6102 6.2639 10.2636 7.16697 9.63437 7.84637C9.00512 8.52576 8.1687 8.89996 7.28 8.89996Z" fill="black"/>
</svg>
